# xmcd CD database file generated by OrangeCD 5.2
#
# Track frame offsets:
#	150
#	10230
#	19227
#	30875
#	40627
#	49285
#	58697
#	69292
#	79415
#	89975
#	100747
#	110430
#	122150
#	132677
#	141477
#	150477
#	160415
#	171060
#
# Disc length: 2402 seconds
#
# Revision: 4
# Processed by: cddbd v1.5.2PL0 Copyright (c) Steve Scherf et al.
# Submitted via: OrangeCD 5.2
#
DISCID=f6096012
DTITLE=Johnny Horton - Honky Tonk Man - The Essential Johnny Horton 1956-1960 (
DTITLE=Disc 1)
DYEAR=1996
DGENRE=Country
TTITLE0=Honky Tonk Man
TTITLE1=I'm A One Woman Man
TTITLE2=Take Me Like I Am
TTITLE3=I Don't Like I Did (Before)
TTITLE4=Hooray For That Little Difference
TTITLE5=I'm Coming Home
TTITLE6=She Knows Why
TTITLE7=The Woman I Need (Honky Tonk Mind)
TTITLE8=Goodbye Lonesome (Hello Baby Doll)
TTITLE9=I'll Do It Every Time
TTITLE10=Let's Take The Long Way Home
TTITLE11=Lover's Rock
TTITLE12=Honky-Tonk Hardwood Floor
TTITLE13=The Wild One
TTITLE14=Hot In The Sugarcane Field
TTITLE15=Wise To The Ways Of A Woman
TTITLE16=Out In New Mexico
TTITLE17=I Love You Baby
EXTD=
EXTT0=
EXTT1=
EXTT2=
EXTT3=
EXTT4=
EXTT5=
EXTT6=
EXTT7=
EXTT8=
EXTT9=
EXTT10=
EXTT11=
EXTT12=
EXTT13=
EXTT14=
EXTT15=
EXTT16=
EXTT17=
PLAYORDER=
